<svg height="512" viewBox="0 0 58 59" width="512" xmlns="http://www.w3.org/2000/svg"><g id="021---Samurai-Helmet" fill="none" transform="translate(-1)"><path id="Shape" d="m58.87 43.63-4.33-5.39-5.65 4.11 9.7-7.13c.433838-.3133942.5440242-.9128076.25-1.36l-4.9-6.67c1.4577964-1.0914903 2.9806057-2.0933386 4.56-3 .4389699-.2529635.6193978-.7942472.42-1.26l-2.8-5.33c-.1819756-.441954-.651253-.6933526-1.12-.6-2.1629101.4220454-4.2094048 1.305449-6 2.59-.0732976-3.0041371-.858112-5.9480482-2.29-8.59l-2.36-3.4c-3.6085183-4.14811276-8.8369782-6.52972434-14.335-6.52972434s-10.7264817 2.38161158-14.335 6.52972434l-2.43 3.4c-1.4210207 2.6514145-2.1921713 5.6023506-2.25 8.61-1.78886605-1.2916521-3.83547669-2.1819278-6-2.61-.46614109-.0947396-.93450492.1519878-1.12.59l-2.8 5.33c-.21150224.4711098-.02950051 1.0257817.42 1.28 1.5793943.9066614 3.10220365 1.9085097 4.56 3l-4.9 6.67c-.29402424.4471924-.18383797 1.0466058.25 1.36l9.7 7.13-5.65-4.12-4.33 5.39c-.24832632.4344819-.1372417.9856325.26 1.29l3.93 3-4.2 7.8c-.2381174.4369071-.11878736.9824158.28 1.28l2.51 1.8c.25494435.1896447.58484258.2468427.88874888.1540921s.5456468-.3244099.65125112-.6240921l1.41-4.33c2.71-4.27 12-7.4 23.14-7.4s20.42 3.13 23.14 7.38c.3892958 1.4913152.8600011 2.9601829 1.41 4.4.1056043.2996822.3473448.5313415.6512511.6240921s.6338045.0355526.8887489-.1540921l2.51-1.85c.3934486-.2965527.5122701-.8354935.28-1.27l-4.2-7.8 3.93-3c.4027316-.305366.5143038-.8632269.26-1.3z" fill="#802f34"/><path id="Shape" d="m14 35c-2.88-4.15-8.07-8.3-12.5-10.8-.43896988-.2529635-.61939778-.7942472-.42-1.26l2.8-5.33c.17841176-.4459036.64862261-.7020006 1.12-.61 5.06 1.12 9 3.85 9.94 9 .464907 3.0309405.1411712 6.1305388-.94 9z" fill="#f29c1f"/><path id="Shape" d="m8.11 50.06c-1.57 4.9-.92 3-2.66 8.27-.10560432.2996822-.34734482.5313415-.65125112.6240921s-.63380453.0355526-.88874888-.1540921l-2.51-1.8c-.39344855-.2965527-.51227014-.8354935-.28-1.27l4.2-7.8z" fill="#c03a2b"/><path id="Shape" d="m5.32 47.93c3.68 2.84 3.73 2.85 0 0z" fill="#c03a2b"/><path id="Shape" d="m11.12 42.36-3 7.7-2.79-2.14-3.93-3c-.3972417-.3043675-.50832632-.8555181-.26-1.29l4.33-5.39z" fill="#d25627"/><path id="Shape" d="m14 35-2.88 7.36-9.71-7.14c-.43383797-.3133942-.54402424-.9128076-.25-1.36l4.9-6.67c3.03142068 2.1808658 5.7093922 4.8149915 7.94 7.81z" fill="#e57e25"/><path id="Shape" d="m58.5 24.2c-4.8625996 2.7055672-9.117279 6.3816103-12.5 10.8-1.0811712-2.8694612-1.404907-5.9690595-.94-9 1-5.13 4.88-7.86 9.94-9 .4661411-.0947396.9345049.1519878 1.12.59l2.8 5.33c.2115022.4711098.0295005 1.0257817-.42 1.28z" fill="#f29c1f"/><path id="Shape" d="m58.6 57-2.51 1.8c-.2549444.1896447-.5848426.2468427-.8887489.1540921s-.5456468-.3244099-.6512511-.6240921c-3.61-10.85-1.11-3.46-2.66-8.27l2.79-2.13 4.2 7.8c.2322701.4345065.1134486.9734473-.28 1.27z" fill="#c03a2b"/><path id="Shape" d="" fill="#c03a2b"/><path id="Shape" d="m58.61 44.92-3.93 3-2.78 2.14-3-7.7 5.66-4.12 4.33 5.39c.2440448.4392737.1241969.9914299-.28 1.29z" fill="#d25627"/><path id="Shape" d="m58.59 35.22-9.71 7.14-2.88-7.36c2.2428307-2.9843317 4.9190529-5.6167367 7.94-7.81l4.9 6.67c.2940242.4471924.183838 1.0466058-.25 1.36z" fill="#e57e25"/><path id="Shape" d="m49 19.61c-2.0801777 1.5495985-3.4896273 3.8354826-3.94 6.39l-12.87 6.53c-1.337754.6226945-2.882246.6226945-4.22 0l-13.03-6.53c-.4503727-2.5545174-1.8598223-4.8404015-3.94-6.39l18.36 6.29c.4167714.1299533.8632286.1299533 1.28 0z" fill="#e64c3c"/><path id="Shape" d="m49 19.61-18.36 6.29c-.4167714.1299533-.8632286.1299533-1.28 0l-18.36-6.29c.0578287-3.0076494.8289793-5.9585855 2.25-8.61l2.43-3.52c3.6085183-4.14811276 8.8369782-6.52972434 14.335-6.52972434s10.7264817 2.38161158 14.335 6.52972434l2.36 3.52c1.4349441 2.6479389 2.2198547 5.5990659 2.29 8.61z" fill="#c03a2b"/><g fill="#f9eab0"><circle id="Oval" cx="50" cy="25" r="1"/><circle id="Oval" cx="51" cy="35" r="1"/><circle id="Oval" cx="53" cy="44" r="1"/><circle id="Oval" cx="7" cy="44" r="1"/><circle id="Oval" cx="10" cy="25" r="1"/><circle id="Oval" cx="9" cy="35" r="1"/></g><circle id="Oval" cx="30" cy="14" fill="#f29c1f" r="6"/><path id="Shape" d="m24.7 11.18c-5.0824264-1.41081902-9.8526872-3.76880713-14.06-6.95-.3601301-.31094318-.88947773-.32508729-1.26569884-.03381934-.37622111.29126796-.49512313.80728277-.28430116 1.23381934 2.27 5.24 8.09 9.56 15.44 11-.7530665-1.6831508-.6903789-3.6190941.17-5.25z" fill="#f9eab0"/><path id="Shape" d="m49.32 4.24c-4.1574558 3.23680084-8.9160859 5.61611588-14 7 .8499191 1.6165614.9089247 3.5342434.16 5.2 7.27-1.51 13.08-5.88 15.42-11 .2515562-.43619269.1395528-.99138953-.2614382-1.29593968-.4009911-.30455015-.9658795-.26344839-1.3185618.09593968z" fill="#f9eab0"/></g></svg>